<mxfile host="app.diagrams.net" modified="2021-02-10T13:17:10.602Z" agent="5.0 (Windows NT 10.0; Win64; x64) AppleWebKit/537.36 (KHTML, like Gecko) Chrome/88.0.4324.146 Safari/537.36" etag="yLprGm30eXeXTY4P-S5C" version="14.2.9" type="github">
  <diagram id="Iw-QWaNOCWS85BmVB6Y0" name="Page-1">
    <mxGraphModel dx="1737" dy="802" grid="0" gridSize="10" guides="1" tooltips="1" connect="1" arrows="1" fold="1" page="0" pageScale="1" pageWidth="850" pageHeight="1100" math="0" shadow="0">
      <root>
        <mxCell id="0" />
        <mxCell id="1" parent="0" />
        <mxCell id="gdMQTxOwHBLfH-t6B_Hz-16" value="Watch DAT fie" style="edgeStyle=orthogonalEdgeStyle;rounded=0;orthogonalLoop=1;jettySize=auto;html=1;entryX=1;entryY=0.5;entryDx=0;entryDy=0;" edge="1" parent="1" source="gdMQTxOwHBLfH-t6B_Hz-1" target="gdMQTxOwHBLfH-t6B_Hz-15">
          <mxGeometry x="0.0769" y="10" relative="1" as="geometry">
            <Array as="points">
              <mxPoint x="350" y="200" />
              <mxPoint x="225" y="200" />
              <mxPoint x="225" y="70" />
            </Array>
            <mxPoint as="offset" />
          </mxGeometry>
        </mxCell>
        <mxCell id="gdMQTxOwHBLfH-t6B_Hz-9" style="edgeStyle=orthogonalEdgeStyle;rounded=0;orthogonalLoop=1;jettySize=auto;html=1;" edge="1" parent="1" source="gdMQTxOwHBLfH-t6B_Hz-2" target="gdMQTxOwHBLfH-t6B_Hz-8">
          <mxGeometry relative="1" as="geometry" />
        </mxCell>
        <mxCell id="gdMQTxOwHBLfH-t6B_Hz-10" value="Create versioned table" style="edgeLabel;html=1;align=center;verticalAlign=middle;resizable=0;points=[];" vertex="1" connectable="0" parent="gdMQTxOwHBLfH-t6B_Hz-9">
          <mxGeometry x="0.1273" y="3" relative="1" as="geometry">
            <mxPoint x="-24" y="13" as="offset" />
          </mxGeometry>
        </mxCell>
        <mxCell id="gdMQTxOwHBLfH-t6B_Hz-8" value="DB" style="shape=cylinder3;whiteSpace=wrap;html=1;boundedLbl=1;backgroundOutline=1;size=15;" vertex="1" parent="1">
          <mxGeometry x="650" y="410" width="60" height="80" as="geometry" />
        </mxCell>
        <mxCell id="gdMQTxOwHBLfH-t6B_Hz-15" value="STS" style="shape=datastore;whiteSpace=wrap;html=1;" vertex="1" parent="1">
          <mxGeometry x="140" y="170" width="60" height="60" as="geometry" />
        </mxCell>
        <mxCell id="gdMQTxOwHBLfH-t6B_Hz-17" value="Openshift namespace" style="swimlane;" vertex="1" parent="1">
          <mxGeometry x="290" y="150" width="250" height="360" as="geometry" />
        </mxCell>
        <mxCell id="gdMQTxOwHBLfH-t6B_Hz-1" value="FunckyService" style="rounded=0;whiteSpace=wrap;html=1;" vertex="1" parent="gdMQTxOwHBLfH-t6B_Hz-17">
          <mxGeometry x="40" y="40" width="120" height="60" as="geometry" />
        </mxCell>
        <mxCell id="gdMQTxOwHBLfH-t6B_Hz-4" value="Share volume" style="shape=folder;fontStyle=1;spacingTop=10;tabWidth=40;tabHeight=14;tabPosition=left;html=1;" vertex="1" parent="gdMQTxOwHBLfH-t6B_Hz-17">
          <mxGeometry x="50" y="152.5" width="140" height="55" as="geometry" />
        </mxCell>
        <mxCell id="gdMQTxOwHBLfH-t6B_Hz-5" style="edgeStyle=orthogonalEdgeStyle;rounded=0;orthogonalLoop=1;jettySize=auto;html=1;entryX=0.357;entryY=0.227;entryDx=0;entryDy=0;entryPerimeter=0;" edge="1" parent="gdMQTxOwHBLfH-t6B_Hz-17" source="gdMQTxOwHBLfH-t6B_Hz-1" target="gdMQTxOwHBLfH-t6B_Hz-4">
          <mxGeometry relative="1" as="geometry">
            <mxPoint x="-120" y="210" as="targetPoint" />
          </mxGeometry>
        </mxCell>
        <mxCell id="gdMQTxOwHBLfH-t6B_Hz-6" value="Put CSV files" style="edgeLabel;html=1;align=center;verticalAlign=middle;resizable=0;points=[];" vertex="1" connectable="0" parent="gdMQTxOwHBLfH-t6B_Hz-5">
          <mxGeometry x="0.0652" y="2" relative="1" as="geometry">
            <mxPoint x="28" y="-2" as="offset" />
          </mxGeometry>
        </mxCell>
        <mxCell id="gdMQTxOwHBLfH-t6B_Hz-2" value="ClientData" style="rounded=0;whiteSpace=wrap;html=1;" vertex="1" parent="gdMQTxOwHBLfH-t6B_Hz-17">
          <mxGeometry x="40" y="270" width="120" height="60" as="geometry" />
        </mxCell>
        <mxCell id="gdMQTxOwHBLfH-t6B_Hz-7" value="Watch for CSV files" style="edgeStyle=orthogonalEdgeStyle;rounded=0;orthogonalLoop=1;jettySize=auto;html=1;entryX=0.371;entryY=0.955;entryDx=0;entryDy=0;entryPerimeter=0;" edge="1" parent="gdMQTxOwHBLfH-t6B_Hz-17" source="gdMQTxOwHBLfH-t6B_Hz-2" target="gdMQTxOwHBLfH-t6B_Hz-4">
          <mxGeometry x="-0.1429" relative="1" as="geometry">
            <mxPoint as="offset" />
          </mxGeometry>
        </mxCell>
        <mxCell id="gdMQTxOwHBLfH-t6B_Hz-20" value="upload DAT file" style="edgeStyle=orthogonalEdgeStyle;rounded=0;orthogonalLoop=1;jettySize=auto;html=1;entryX=0;entryY=0.5;entryDx=0;entryDy=0;" edge="1" parent="1" source="gdMQTxOwHBLfH-t6B_Hz-19" target="gdMQTxOwHBLfH-t6B_Hz-15">
          <mxGeometry relative="1" as="geometry" />
        </mxCell>
        <mxCell id="gdMQTxOwHBLfH-t6B_Hz-19" value="Actor" style="shape=umlActor;verticalLabelPosition=bottom;verticalAlign=top;html=1;" vertex="1" parent="1">
          <mxGeometry x="-10" y="170" width="30" height="60" as="geometry" />
        </mxCell>
      </root>
    </mxGraphModel>
  </diagram>
</mxfile>
